<svg width="1718" height="409" viewBox="0 0 1718 409" fill="none" xmlns="http://www.w3.org/2000/svg">
<g clip-path="url(#clip0_2006_39)">
<path d="M621.34 210.723H647.552V110.013H621.339V144.513C621.339 145.725 620.304 146.773 618.997 146.773H590.625V171.073H618.997C620.304 171.073 621.339 172.122 621.339 173.333L621.34 210.723ZM492.203 257.931H648.485V233.632H520.793C519.486 233.632 518.437 232.597 518.437 231.357V205.247H492.217V231.357C492.217 231.453 492.217 231.534 492.203 231.63V257.931ZM1205.89 257.931H1362.19V233.632H1234.52C1233.24 233.632 1232.19 232.597 1232.19 231.357V205.247H1205.97V231.357C1205.97 231.561 1205.93 231.739 1205.89 231.902L1205.89 257.931ZM1330.35 214.59H1356.56V110.012H1330.35V122.584C1330.35 123.81 1329.32 124.845 1328 124.845H1299.65V149.145H1328C1329.32 149.145 1330.35 150.179 1330.35 151.432V214.59ZM839.703 236.56H1006.88V212.248H949.498C948.231 212.248 947.169 211.213 947.169 209.973V166.987H920.963V209.973C920.963 211.213 919.901 212.248 918.607 212.248H897.563C896.283 212.248 895.233 211.213 895.233 209.973V166.987H869.001V209.973C869.001 211.213 867.966 212.248 866.671 212.248H839.703V236.56Z" fill="white"/>
<path d="M970.773 192.839H996.965V141.993C996.965 141.843 996.993 141.708 997.007 141.571V115.392H849.523V139.692H968.403C969.697 139.692 970.773 140.74 970.773 141.993V192.839ZM1374.78 236.56H1541.99V212.248H1484.62C1483.32 212.248 1482.26 211.213 1482.26 209.973V166.987H1456.04V209.973C1456.04 211.213 1455 212.248 1453.73 212.248H1432.68C1431.38 212.248 1430.33 211.213 1430.33 209.973V166.987H1404.12V209.973C1404.12 211.213 1403.06 212.248 1401.77 212.248H1374.78V236.56Z" fill="white"/>
<path d="M1505.85 192.839H1532.07V141.993C1532.07 141.843 1532.07 141.708 1532.11 141.571V115.392H1384.62V139.692H1503.51C1504.81 139.692 1505.85 140.74 1505.85 141.993V192.839ZM1681.76 192.839H1708V141.993C1708 141.843 1708 141.708 1708.04 141.571V115.392H1560.53V139.692H1679.42C1680.71 139.692 1681.76 140.74 1681.76 141.993V192.839ZM527.467 159.59C528.067 159.59 528.666 159.81 529.115 160.258L571.585 201.638L589.223 184.476L547.271 143.56C546.604 142.906 546.399 141.94 546.768 141.095C546.951 140.672 547.253 140.311 547.637 140.057C548.022 139.803 548.472 139.667 548.933 139.665H583.557V115.352H542.763C541.469 115.352 540.42 114.343 540.42 113.091V92.101H514.214V113.091C514.214 114.343 513.152 115.351 511.858 115.351H468.763V139.664H505.987C506.955 139.664 507.799 140.236 508.153 141.094C508.521 141.939 508.317 142.906 507.635 143.56L465.698 184.476L483.35 201.637L525.805 160.258C526.25 159.826 526.847 159.586 527.467 159.591M730.208 269.086H756.428V238.916C756.428 237.691 757.49 236.656 758.771 236.656H827.779V212.343H661.248V236.656H727.879C729.159 236.656 730.209 237.691 730.209 238.916L730.208 269.086ZM1089.37 269.086H1115.59V238.916C1115.59 237.691 1116.63 236.656 1117.9 236.656H1186.18V212.343H1019.64V236.656H1087.02C1088.35 236.656 1089.37 237.691 1089.37 238.916V269.086ZM1621.49 269.086H1647.71V238.916C1647.71 237.691 1648.75 236.656 1650.04 236.656H1717.54V212.343H1551.01V236.656H1619.15C1620.44 236.656 1621.49 237.691 1621.49 238.916V269.086ZM669.31 177.692L686.95 194.868L739.565 143.573C740.437 142.701 741.99 142.701 742.862 143.573L795.477 194.868L813.103 177.692L778.111 143.56C777.444 142.906 777.24 141.94 777.594 141.095C777.777 140.671 778.08 140.31 778.466 140.055C778.852 139.801 779.304 139.666 779.766 139.665H818.333V115.352H666.165V139.664H702.654C703.607 139.664 704.459 140.236 704.813 141.094C705.187 141.939 704.983 142.906 704.302 143.56L669.31 177.692ZM1250.63 217.015H1276.84V191.258C1276.84 189.978 1277.9 188.93 1279.2 188.93H1309.24V164.63H1272.18C1271.24 164.63 1270.41 164.1 1270.06 163.323C1269.87 162.917 1269.81 162.467 1269.87 162.025C1269.93 161.584 1270.12 161.17 1270.41 160.831C1276.52 154.109 1279.9 145.354 1279.9 136.273C1279.9 115.761 1262.8 99.048 1241.76 99.048C1220.71 99.048 1203.57 115.761 1203.57 136.273C1203.58 145.354 1206.96 154.109 1213.07 160.831C1213.68 161.511 1213.82 162.491 1213.45 163.323C1213.25 163.717 1212.95 164.047 1212.57 164.278C1212.19 164.509 1211.76 164.631 1211.32 164.631H1186.39V188.93H1248.3C1248.92 188.931 1249.51 189.176 1249.95 189.612C1250.38 190.048 1250.63 190.64 1250.63 191.258V217.015ZM1241.76 149.553C1234.23 149.553 1228.15 143.601 1228.15 136.273C1228.15 128.985 1234.23 123.02 1241.76 123.02C1249.24 123.02 1255.33 128.985 1255.33 136.273C1255.33 143.601 1249.24 149.553 1241.76 149.553ZM1100.52 141.258C1101.13 141.258 1101.71 141.476 1102.16 141.912L1154.94 193.37L1174.13 174.669L1100.52 102.862L1026.93 174.669L1046.08 193.37L1098.85 141.912C1099.3 141.49 1099.9 141.256 1100.52 141.258ZM523.122 337.543C523.217 333.702 522.932 329.888 521.106 327.736C519.281 325.584 515.168 324.835 513.343 324.835C506.056 324.835 503.195 329.125 502.895 330.079C502.623 330.828 500.893 332.489 500.893 344.067V362.114C500.893 378.622 506.464 380.611 513.254 380.611C515.931 380.611 524.076 379.671 524.171 366.486H533.269C533.651 387.789 518.239 387.789 513.717 387.789C505.116 387.789 491.904 387.23 491.904 361.079V342.024C491.904 322.969 500.498 317.562 514.119 317.562C527.821 317.562 533.079 324.467 532.22 337.542L523.122 337.543ZM561.539 318.95H572.728L595.249 386.4H585.382L580.396 370.328H553.66L548.498 386.4H539.591L561.539 318.95ZM566.885 326.905H566.68L555.866 362.85H577.986L566.885 326.905ZM636.145 318.95V326.428H617.948V386.4H609.135V326.428H590.925V318.951L636.145 318.95ZM645.816 386.4V318.95H654.614V348.1H678.845V318.95H687.671V386.4H678.845V355.563H654.615V386.4H645.816ZM703.471 361.732V339.6C703.471 326.143 710.554 317.563 725.196 317.563C739.852 317.563 746.947 326.143 746.947 339.6V361.733C746.947 380.421 739.852 387.79 725.196 387.79C710.554 387.79 703.471 380.42 703.471 361.733M737.944 362.115V339.315C737.944 325.204 727.988 324.741 725.196 324.741C722.431 324.741 712.467 325.204 712.467 339.314V362.114C712.467 376.866 716.873 380.612 725.196 380.612C733.546 380.612 737.944 376.866 737.944 362.115ZM762.27 386.4V318.95H771.083V378.908H796.472V386.4H762.27ZM814.757 386.4H805.937V318.95H814.757V386.4ZM861.877 337.543C861.993 333.702 861.693 329.888 859.868 327.736C858.05 325.584 853.923 324.835 852.111 324.835C844.839 324.835 841.958 329.125 841.665 330.079C841.392 330.828 839.663 332.489 839.663 344.067V362.114C839.663 378.622 845.213 380.611 852.016 380.611C854.699 380.611 862.831 379.671 862.926 366.486H872.038C872.413 387.789 857.001 387.789 852.507 387.789C843.871 387.789 830.659 387.23 830.659 361.079V342.024C830.659 322.969 839.267 317.562 852.874 317.562C866.563 317.562 871.848 324.467 870.996 337.542L861.877 337.543ZM906.123 318.95H927.392C936.204 318.95 942.538 322.03 945.97 329.22C948.763 334.914 949.048 348.385 949.048 350.523C949.048 364.906 947.707 373.229 944.813 377.71C941.08 383.498 934.093 386.4 922.025 386.4H906.123V318.95ZM914.943 378.908H923.265C935.537 378.908 940.031 374.441 940.031 358.75V345.102C940.031 331.468 935.741 326.428 926.52 326.428H914.943V378.908ZM974.41 386.4H965.584V318.95H974.41V386.4ZM990.782 361.732V339.6C990.782 326.143 997.892 317.563 1012.53 317.563C1027.18 317.563 1034.27 326.143 1034.27 339.6V361.733C1034.27 380.421 1027.18 387.79 1012.53 387.79C997.891 387.79 990.782 380.42 990.782 361.733M1025.27 362.115V339.315C1025.27 325.204 1015.3 324.741 1012.53 324.741C1009.76 324.741 999.785 325.204 999.785 339.314V362.114C999.785 376.866 1004.21 380.612 1012.53 380.612C1020.86 380.612 1025.27 376.866 1025.27 362.115ZM1080.04 337.543C1080.13 333.702 1079.87 329.888 1078.04 327.736C1076.24 325.584 1072.1 324.835 1070.29 324.835C1063.01 324.835 1060.15 329.125 1059.85 330.079C1059.57 330.828 1057.85 332.489 1057.85 344.067V362.114C1057.85 378.622 1063.41 380.611 1070.2 380.611C1072.89 380.611 1081.02 379.671 1081.1 366.486H1090.21C1090.59 387.789 1075.17 387.789 1070.65 387.789C1062.04 387.789 1048.82 387.23 1048.82 361.079V342.024C1048.82 322.969 1057.47 317.562 1071.03 317.562C1084.76 317.562 1090.01 324.467 1089.15 337.542L1080.04 337.543ZM1102.85 386.4V318.95H1138.48V326.428H1111.65V348.098H1136.56V355.563H1111.65V378.908H1139.05V386.4H1102.85ZM1157.44 366.31V368.27C1157.44 377.437 1163.38 380.325 1169.03 380.325C1176.03 380.325 1181.39 377.437 1181.39 369.375C1181.39 354.445 1150.36 356.121 1150.36 335.868C1150.36 323.908 1159.08 317.562 1170.65 317.562C1183.31 317.562 1190.39 323.541 1189.82 337.27H1180.62C1180.74 329.888 1178.32 325.026 1169.99 325.026C1164.72 325.026 1159.37 327.641 1159.37 334.914C1159.37 349.774 1190.39 347.622 1190.39 369.02C1190.39 383.212 1180.34 387.789 1168.95 387.789C1148.52 387.966 1148.52 372.752 1148.71 366.309L1157.44 366.31ZM1204 386.4V318.95H1239.63V326.428H1212.81V348.098H1237.71V355.563H1212.81V378.908H1240.2V386.4H1204ZM1272.86 361.732V339.6C1272.86 326.143 1279.93 317.563 1294.6 317.563C1309.24 317.563 1316.32 326.143 1316.32 339.6V361.733C1316.32 380.421 1309.24 387.79 1294.6 387.79C1279.93 387.79 1272.86 380.42 1272.86 361.733M1307.32 362.115V339.315C1307.32 325.204 1297.38 324.741 1294.6 324.741C1291.81 324.741 1281.87 325.204 1281.87 339.314V362.114C1281.87 376.866 1286.25 380.612 1294.6 380.612C1302.95 380.612 1307.32 376.866 1307.32 362.115ZM1330.99 386.4V318.95H1365.29V326.428H1339.79V348.098H1363.94V355.563H1339.79V386.4H1330.99ZM1402.15 366.31V368.27C1402.15 377.437 1408.09 380.325 1413.75 380.325C1420.73 380.325 1426.11 377.437 1426.11 369.375C1426.11 354.445 1395.06 356.121 1395.06 335.868C1395.06 323.908 1403.78 317.562 1415.36 317.562C1428.01 317.562 1435.1 323.541 1434.54 337.27H1425.33C1425.43 329.888 1423.04 325.026 1414.68 325.026C1409.43 325.026 1404.07 327.641 1404.07 334.914C1404.07 349.774 1435.1 347.622 1435.1 369.02C1435.1 383.212 1425.04 387.789 1413.66 387.789C1393.24 387.966 1393.24 372.752 1393.44 366.309L1402.15 366.31ZM1448.4 318.95H1457.23V362.114C1457.23 376.865 1461.81 380.611 1470.15 380.611C1478.49 380.611 1483.07 376.865 1483.07 362.114V318.95H1491.89V361.731C1491.89 380.419 1484.81 387.788 1470.15 387.788C1455.48 387.788 1448.4 380.418 1448.4 361.731V318.95ZM1500.04 318.95H1509.42L1522.45 377.437H1522.64L1536.53 318.951H1547.91L1560.47 377.437H1560.66L1574.75 318.951H1583.94L1565.65 386.4H1554.93L1541.79 327.913H1541.59L1527.61 386.4H1516.89L1500.04 318.95ZM1592.07 361.732V339.6C1592.07 326.143 1599.16 317.563 1613.8 317.563C1628.48 317.563 1635.55 326.143 1635.55 339.6V361.733C1635.55 380.421 1628.48 387.79 1613.8 387.79C1599.16 387.79 1592.07 380.42 1592.07 361.733M1626.56 362.115V339.315C1626.56 325.204 1616.59 324.741 1613.8 324.741C1611.03 324.741 1601.07 325.204 1601.07 339.314V362.114C1601.07 376.866 1605.49 380.612 1613.8 380.612C1622.15 380.612 1626.56 376.866 1626.56 362.115ZM1698.78 318.95V386.4H1686.7L1659.42 327.913H1659.21V386.4H1651.36V318.95H1663.81L1690.74 376.688H1690.92V318.951L1698.78 318.95Z" fill="white"/>
<path d="M359.383 178.387C344.353 148.45 329.33 118.497 314.293 88.533C283.973 104.114 252.51 114.793 220.502 120.555C225.038 149.92 229.6 179.273 234.122 208.625C276.319 205.097 318.419 195.059 359.383 178.387ZM45.71 102.834C33.601 123.224 21.479 143.601 9.357 163.991C48.897 183.89 90.079 197.374 131.942 204.388C135.332 177.842 138.724 151.296 142.129 124.764C109.795 122.462 77.453 115.188 45.71 102.834Z" fill="#0094D1"/>
<path d="M131.942 204.388C124.239 264.659 116.523 324.944 108.814 385.228C159.959 399.258 211.908 407.048 265.054 408.506C254.744 341.874 244.433 275.256 234.122 208.625C200.018 211.468 165.693 210.045 131.942 204.389M220.502 120.555C215.122 85.835 209.742 51.117 204.375 16.399C188.004 23.019 171.618 27.69 154.163 30.686C150.152 62.041 146.133 93.396 142.129 124.764C168.327 126.628 194.655 125.215 220.502 120.555Z" fill="#00B7E6"/>
<path d="M234.122 208.625C229.6 179.273 225.038 149.92 220.502 120.555C194.655 125.215 168.327 126.629 142.129 124.764C138.724 151.296 135.333 177.842 131.942 204.388C165.693 210.045 200.018 211.468 234.122 208.625Z" fill="#0054A5"/>
<path d="M0 297.05L45.785 219.712L91.557 297.049L0 297.05Z" fill="#A5CC97"/>
<path d="M311.174 26.042C311.174 40.412 299.214 52.072 284.477 52.072C269.727 52.072 257.781 40.412 257.781 26.042C257.781 11.659 269.726 0 284.477 0C299.215 0 311.174 11.659 311.174 26.042Z" fill="#FFC769"/>
</g>
<defs>
<clipPath id="clip0_2006_39">
<rect width="1717.54" height="408.506" fill="white"/>
</clipPath>
</defs>
</svg>
