<svg width="360" height="409" viewBox="0 0 360 409" fill="none" xmlns="http://www.w3.org/2000/svg">
<path d="M359.383 178.387C344.353 148.45 329.33 118.497 314.293 88.533C283.973 104.114 252.51 114.793 220.502 120.555C225.038 149.92 229.6 179.273 234.122 208.625C276.319 205.097 318.419 195.059 359.383 178.387ZM45.71 102.834C33.601 123.224 21.479 143.601 9.357 163.991C48.897 183.89 90.079 197.374 131.942 204.388C135.332 177.842 138.724 151.296 142.129 124.764C109.795 122.462 77.453 115.188 45.71 102.834Z" fill="#0094D1"/>
<path d="M131.942 204.388C124.239 264.659 116.523 324.944 108.814 385.228C159.959 399.258 211.908 407.048 265.054 408.506C254.744 341.874 244.433 275.256 234.122 208.625C200.018 211.468 165.693 210.045 131.942 204.389M220.502 120.555C215.122 85.835 209.742 51.117 204.375 16.399C188.004 23.019 171.618 27.69 154.163 30.686C150.152 62.041 146.133 93.396 142.129 124.764C168.327 126.628 194.655 125.215 220.502 120.555Z" fill="#00B7E6"/>
<path d="M234.122 208.625C229.6 179.273 225.038 149.92 220.502 120.555C194.655 125.215 168.327 126.629 142.129 124.764C138.724 151.296 135.333 177.842 131.942 204.388C165.693 210.045 200.018 211.468 234.122 208.625Z" fill="#0054A5"/>
<path d="M0 297.05L45.785 219.712L91.557 297.049L0 297.05Z" fill="#A5CC97"/>
<path d="M311.174 26.042C311.174 40.412 299.214 52.072 284.477 52.072C269.727 52.072 257.781 40.412 257.781 26.042C257.781 11.659 269.726 0 284.477 0C299.215 0 311.174 11.659 311.174 26.042Z" fill="#FFC769"/>
</svg>
